<?xml version="1.0" encoding="UTF-8"?>
<svg width="80px" height="80px" viewBox="0 0 80 80" version="1.1" xmlns="http://www.w3.org/2000/svg" xmlns:xlink="http://www.w3.org/1999/xlink">
    <!-- Generator: Sketch 43.2 (39069) - http://www.bohemiancoding.com/sketch -->
    <title>fgdc-lead</title>
    <desc>Created with Sketch.</desc>
    <defs></defs>
    <g id="Page-1" stroke="none" stroke-width="1" fill="none" fill-rule="evenodd">
        <g id="fgdc-lead" stroke="#FFFFFF" stroke-width="2">
            <circle id="Oval" cx="40" cy="23" r="18"></circle>
            <path d="M37.2394689,47.8534938 C37.1772141,47.3554554 37.4909579,47 37.9981014,47 L42.0018986,47 C42.5040206,47 42.8222646,47.3596254 42.7605311,47.8534938 L42.2549132,51.8984367 C42.1811971,52.4881658 41.5994346,53 41.0020869,53 L38.9979131,53 C38.3989007,53 37.8188958,52.4889089 37.7450868,51.8984367 L37.2394689,47.8534938 L37.2394689,47.8534938 Z" id="Rectangle"></path>
            <path d="M36.0467643,62.0674146 C35.9617441,61.2597228 36.3915497,60.0022371 36.9489688,59.4200385 L38.9668515,57.3124528 C39.3520323,56.9101492 39.9777526,56.8946533 40.3751942,57.2758696 L42.7115595,59.5168542 C43.2832189,60.065176 43.721303,61.2688495 43.6372435,62.0674146 L42.0577534,77.0725707 C41.9952623,77.6662355 41.4325133,78.1746774 40.8440908,78.1746774 L38.839917,78.1746774 C38.2478988,78.1746774 37.6891158,77.6697544 37.6262544,77.0725707 L36.0467643,62.0674146 Z" id="Rectangle-Copy" transform="translate(39.841819, 67.587339) rotate(-180.000000) translate(-39.841819, -67.587339) "></path>
            <path d="M31.9989001,46.2860068 C20.5115269,47.6996082 3,48.3939739 3,69.8454463" id="Oval-2"></path>
            <path d="M77.1251305,46.271138 C65.6401573,47.6950023 48.0058465,48.3189007 48.0058465,69.8454463" id="Oval-2" transform="translate(62.565488, 58.058292) scale(-1, 1) translate(-62.565488, -58.058292) "></path>
        </g>
    </g>
</svg>